<?xml version="1.0" encoding="UTF-8" standalone="no"?>
<!DOCTYPE svg PUBLIC "-//W3C//DTD SVG 1.1//EN"
 "http://www.w3.org/Graphics/SVG/1.1/DTD/svg11.dtd">
<!-- Generated by graphviz version 2.40.1 (20161225.0304)
 -->
<!-- Title: %0 Pages: 1 -->
<svg width="518pt" height="116pt"
 viewBox="0.00 0.00 517.58 116.00" xmlns="http://www.w3.org/2000/svg" xmlns:xlink="http://www.w3.org/1999/xlink">
<g id="graph0" class="graph" transform="scale(1 1) rotate(0) translate(4 112)">
<title>%0</title>
<polygon fill="#ffffff" stroke="transparent" points="-4,4 -4,-112 513.575,-112 513.575,4 -4,4"/>
<!-- /home/kaguya/FIUnam/LabVLSI/Proyecto01/bcd2ss7.vhdl -->
<g id="node1" class="node">
<title>/home/kaguya/FIUnam/LabVLSI/Proyecto01/bcd2ss7.vhdl</title>
<polygon fill="#d3d3d3" stroke="#069302" points="97.5397,-36 .1531,-36 .1531,-32 -3.8469,-32 -3.8469,-28 .1531,-28 .1531,-8 -3.8469,-8 -3.8469,-4 .1531,-4 .1531,0 97.5397,0 97.5397,-36"/>
<polyline fill="none" stroke="#069302" points=".1531,-32 4.1531,-32 4.1531,-28 .1531,-28 "/>
<polyline fill="none" stroke="#069302" points=".1531,-8 4.1531,-8 4.1531,-4 .1531,-4 "/>
<text text-anchor="middle" x="48.8464" y="-13.8" font-family="Helvetica,sans-Serif" font-size="14.00" fill="#000000">bcd2ss7.vhdl</text>
</g>
<!-- /home/kaguya/FIUnam/LabVLSI/Proyecto01/display.vhdl -->
<g id="node2" class="node">
<title>/home/kaguya/FIUnam/LabVLSI/Proyecto01/display.vhdl</title>
<polygon fill="#d3d3d3" stroke="#069302" points="204.4699,-36 115.2229,-36 115.2229,-32 111.2229,-32 111.2229,-28 115.2229,-28 115.2229,-8 111.2229,-8 111.2229,-4 115.2229,-4 115.2229,0 204.4699,0 204.4699,-36"/>
<polyline fill="none" stroke="#069302" points="115.2229,-32 119.2229,-32 119.2229,-28 115.2229,-28 "/>
<polyline fill="none" stroke="#069302" points="115.2229,-8 119.2229,-8 119.2229,-4 115.2229,-4 "/>
<text text-anchor="middle" x="159.8464" y="-13.8" font-family="Helvetica,sans-Serif" font-size="14.00" fill="#000000">display.vhdl</text>
</g>
<!-- /home/kaguya/FIUnam/LabVLSI/Proyecto01/divf.vhdl -->
<g id="node3" class="node">
<title>/home/kaguya/FIUnam/LabVLSI/Proyecto01/divf.vhdl</title>
<polygon fill="#d3d3d3" stroke="#069302" points="289.6895,-36 222.0033,-36 222.0033,-32 218.0033,-32 218.0033,-28 222.0033,-28 222.0033,-8 218.0033,-8 218.0033,-4 222.0033,-4 222.0033,0 289.6895,0 289.6895,-36"/>
<polyline fill="none" stroke="#069302" points="222.0033,-32 226.0033,-32 226.0033,-28 222.0033,-28 "/>
<polyline fill="none" stroke="#069302" points="222.0033,-8 226.0033,-8 226.0033,-4 222.0033,-4 "/>
<text text-anchor="middle" x="255.8464" y="-13.8" font-family="Helvetica,sans-Serif" font-size="14.00" fill="#000000">divf.vhdl</text>
</g>
<!-- /home/kaguya/FIUnam/LabVLSI/Proyecto01/main.vhdl -->
<g id="node4" class="node">
<title>/home/kaguya/FIUnam/LabVLSI/Proyecto01/main.vhdl</title>
<polygon fill="#d3d3d3" stroke="#069302" points="293.7413,-108 217.9515,-108 217.9515,-104 213.9515,-104 213.9515,-100 217.9515,-100 217.9515,-80 213.9515,-80 213.9515,-76 217.9515,-76 217.9515,-72 293.7413,-72 293.7413,-108"/>
<polyline fill="none" stroke="#069302" points="217.9515,-104 221.9515,-104 221.9515,-100 217.9515,-100 "/>
<polyline fill="none" stroke="#069302" points="217.9515,-80 221.9515,-80 221.9515,-76 217.9515,-76 "/>
<text text-anchor="middle" x="255.8464" y="-85.8" font-family="Helvetica,sans-Serif" font-size="14.00" fill="#000000">main.vhdl</text>
</g>
<!-- /home/kaguya/FIUnam/LabVLSI/Proyecto01/main.vhdl&#45;&gt;/home/kaguya/FIUnam/LabVLSI/Proyecto01/bcd2ss7.vhdl -->
<g id="edge4" class="edge">
<title>/home/kaguya/FIUnam/LabVLSI/Proyecto01/main.vhdl&#45;&gt;/home/kaguya/FIUnam/LabVLSI/Proyecto01/bcd2ss7.vhdl</title>
<path fill="none" stroke="#000000" d="M217.8794,-76.7941C187.047,-66.0698 143.0337,-50.7608 107.6484,-38.4529"/>
<polygon fill="#000000" stroke="#000000" points="108.5096,-35.0468 97.9148,-35.0673 106.2099,-41.6583 108.5096,-35.0468"/>
</g>
<!-- /home/kaguya/FIUnam/LabVLSI/Proyecto01/main.vhdl&#45;&gt;/home/kaguya/FIUnam/LabVLSI/Proyecto01/display.vhdl -->
<g id="edge3" class="edge">
<title>/home/kaguya/FIUnam/LabVLSI/Proyecto01/main.vhdl&#45;&gt;/home/kaguya/FIUnam/LabVLSI/Proyecto01/display.vhdl</title>
<path fill="none" stroke="#000000" d="M231.6215,-71.8314C219.6836,-62.8779 205.1208,-51.9558 192.2404,-42.2955"/>
<polygon fill="#000000" stroke="#000000" points="194.1635,-39.3629 184.0635,-36.1628 189.9635,-44.9629 194.1635,-39.3629"/>
</g>
<!-- /home/kaguya/FIUnam/LabVLSI/Proyecto01/main.vhdl&#45;&gt;/home/kaguya/FIUnam/LabVLSI/Proyecto01/divf.vhdl -->
<g id="edge5" class="edge">
<title>/home/kaguya/FIUnam/LabVLSI/Proyecto01/main.vhdl&#45;&gt;/home/kaguya/FIUnam/LabVLSI/Proyecto01/divf.vhdl</title>
<path fill="none" stroke="#000000" d="M255.8464,-71.8314C255.8464,-64.131 255.8464,-54.9743 255.8464,-46.4166"/>
<polygon fill="#000000" stroke="#000000" points="259.3465,-46.4132 255.8464,-36.4133 252.3465,-46.4133 259.3465,-46.4132"/>
</g>
<!-- /home/kaguya/FIUnam/LabVLSI/Proyecto01/senal.vhdl -->
<g id="node5" class="node">
<title>/home/kaguya/FIUnam/LabVLSI/Proyecto01/senal.vhdl</title>
<polygon fill="#d3d3d3" stroke="#069302" points="386.3632,-36 307.3296,-36 307.3296,-32 303.3296,-32 303.3296,-28 307.3296,-28 307.3296,-8 303.3296,-8 303.3296,-4 307.3296,-4 307.3296,0 386.3632,0 386.3632,-36"/>
<polyline fill="none" stroke="#069302" points="307.3296,-32 311.3296,-32 311.3296,-28 307.3296,-28 "/>
<polyline fill="none" stroke="#069302" points="307.3296,-8 311.3296,-8 311.3296,-4 307.3296,-4 "/>
<text text-anchor="middle" x="346.8464" y="-13.8" font-family="Helvetica,sans-Serif" font-size="14.00" fill="#000000">senal.vhdl</text>
</g>
<!-- /home/kaguya/FIUnam/LabVLSI/Proyecto01/main.vhdl&#45;&gt;/home/kaguya/FIUnam/LabVLSI/Proyecto01/senal.vhdl -->
<g id="edge2" class="edge">
<title>/home/kaguya/FIUnam/LabVLSI/Proyecto01/main.vhdl&#45;&gt;/home/kaguya/FIUnam/LabVLSI/Proyecto01/senal.vhdl</title>
<path fill="none" stroke="#000000" d="M278.8095,-71.8314C290.0179,-62.9632 303.6673,-52.1637 315.7903,-42.5718"/>
<polygon fill="#000000" stroke="#000000" points="318.2201,-45.1125 323.8906,-36.1628 313.8767,-39.6229 318.2201,-45.1125"/>
</g>
<!-- /home/kaguya/FIUnam/LabVLSI/Proyecto01/ultrasonic.vhdl -->
<g id="node6" class="node">
<title>/home/kaguya/FIUnam/LabVLSI/Proyecto01/ultrasonic.vhdl</title>
<polygon fill="#d3d3d3" stroke="#069302" points="509.8046,-36 403.8882,-36 403.8882,-32 399.8882,-32 399.8882,-28 403.8882,-28 403.8882,-8 399.8882,-8 399.8882,-4 403.8882,-4 403.8882,0 509.8046,0 509.8046,-36"/>
<polyline fill="none" stroke="#069302" points="403.8882,-32 407.8882,-32 407.8882,-28 403.8882,-28 "/>
<polyline fill="none" stroke="#069302" points="403.8882,-8 407.8882,-8 407.8882,-4 403.8882,-4 "/>
<text text-anchor="middle" x="456.8464" y="-13.8" font-family="Helvetica,sans-Serif" font-size="14.00" fill="#000000">ultrasonic.vhdl</text>
</g>
<!-- /home/kaguya/FIUnam/LabVLSI/Proyecto01/main.vhdl&#45;&gt;/home/kaguya/FIUnam/LabVLSI/Proyecto01/ultrasonic.vhdl -->
<g id="edge1" class="edge">
<title>/home/kaguya/FIUnam/LabVLSI/Proyecto01/main.vhdl&#45;&gt;/home/kaguya/FIUnam/LabVLSI/Proyecto01/ultrasonic.vhdl</title>
<path fill="none" stroke="#000000" d="M294.1261,-76.2879C323.1535,-65.89 363.5981,-51.4024 396.9027,-39.4724"/>
<polygon fill="#000000" stroke="#000000" points="398.305,-42.6879 406.5389,-36.0206 395.9444,-36.0979 398.305,-42.6879"/>
</g>
</g>
</svg>
