<?xml version="1.0" encoding="UTF-8" standalone="no"?>
<!DOCTYPE svg PUBLIC "-//W3C//DTD SVG 1.1//EN"
 "http://www.w3.org/Graphics/SVG/1.1/DTD/svg11.dtd">
<!-- Generated by graphviz version 2.40.1 (20161225.0304)
 -->
<!-- Title: state transitions Pages: 1 -->
<svg width="513pt" height="352pt"
 viewBox="0.00 0.00 513.37 352.00" xmlns="http://www.w3.org/2000/svg" xmlns:xlink="http://www.w3.org/1999/xlink">
<g id="graph0" class="graph" transform="scale(1 1) rotate(0) translate(4 348)">
<title>state transitions</title>
<polygon fill="#ffffff" stroke="transparent" points="-4,4 -4,-348 509.366,-348 509.366,4 -4,4"/>
<g id="clust1" class="cluster state regular">
<title>cluster_NS</title>
<path fill="none" stroke="#000000" stroke-width="2" d="M20,-8C20,-8 432,-8 432,-8 438,-8 444,-14 444,-20 444,-20 444,-324 444,-324 444,-330 438,-336 432,-336 432,-336 20,-336 20,-336 14,-336 8,-330 8,-324 8,-324 8,-20 8,-20 8,-14 14,-8 20,-8"/>
<text text-anchor="start" x="217.6672" y="-317.2" font-family="Helvetica,sans-Serif" font-size="12.00" fill="#000000">NS</text>
</g>
<!-- NS -->
<!-- STATE_STOP -->
<g id="node2" class="node state regular">
<title>STATE_STOP</title>
<polygon fill="#ffffff" fill-opacity="0.003922" stroke="transparent" stroke-width="2" points="161,-298 61,-298 61,-262 161,-262 161,-298"/>
<text text-anchor="start" x="71.994" y="-276.2" font-family="Helvetica,sans-Serif" font-size="12.00" fill="#000000">STATE_STOP</text>
<path fill="none" stroke="#000000" stroke-width="2" d="M73.3333,-263C73.3333,-263 148.6667,-263 148.6667,-263 154.3333,-263 160,-268.6667 160,-274.3333 160,-274.3333 160,-285.6667 160,-285.6667 160,-291.3333 154.3333,-297 148.6667,-297 148.6667,-297 73.3333,-297 73.3333,-297 67.6667,-297 62,-291.3333 62,-285.6667 62,-285.6667 62,-274.3333 62,-274.3333 62,-268.6667 67.6667,-263 73.3333,-263"/>
</g>
<!-- STATE_STOP&#45;&gt;STATE_STOP -->
<g id="edge2" class="edge transition">
<title>STATE_STOP&#45;&gt;STATE_STOP</title>
<path fill="none" stroke="#000000" d="M161.1354,-284.8081C173.6477,-284.4718 183,-282.8691 183,-280 183,-277.9826 178.3764,-276.5914 171.2816,-275.8263"/>
<polygon fill="#000000" stroke="#000000" points="171.3343,-272.3228 161.1354,-275.1919 170.8975,-279.3092 171.3343,-272.3228"/>
<text text-anchor="start" x="183" y="-277" font-family="Helvetica,sans-Serif" font-size="10.00" fill="#000000">not (enable_in = &#39;1&#39; and distance &gt; 5) &#160;&#160;</text>
</g>
<!-- STATE_ACCELERATE -->
<g id="node3" class="node state regular">
<title>STATE_ACCELERATE</title>
<polygon fill="#ffffff" fill-opacity="0.003922" stroke="transparent" stroke-width="2" points="163.5,-216 16.5,-216 16.5,-180 163.5,-180 163.5,-216"/>
<text text-anchor="start" x="27.8276" y="-194.2" font-family="Helvetica,sans-Serif" font-size="12.00" fill="#000000">STATE_ACCELERATE</text>
<path fill="none" stroke="#000000" stroke-width="2" d="M28.8333,-181C28.8333,-181 151.1667,-181 151.1667,-181 156.8333,-181 162.5,-186.6667 162.5,-192.3333 162.5,-192.3333 162.5,-203.6667 162.5,-203.6667 162.5,-209.3333 156.8333,-215 151.1667,-215 151.1667,-215 28.8333,-215 28.8333,-215 23.1667,-215 17.5,-209.3333 17.5,-203.6667 17.5,-203.6667 17.5,-192.3333 17.5,-192.3333 17.5,-186.6667 23.1667,-181 28.8333,-181"/>
</g>
<!-- STATE_STOP&#45;&gt;STATE_ACCELERATE -->
<g id="edge1" class="edge transition">
<title>STATE_STOP&#45;&gt;STATE_ACCELERATE</title>
<path fill="none" stroke="#000000" d="M106.3394,-261.8015C103.6478,-251.2915 100.2056,-237.8503 97.1753,-226.0177"/>
<polygon fill="#000000" stroke="#000000" points="100.5191,-224.9666 94.6476,-216.1476 93.738,-226.7033 100.5191,-224.9666"/>
<text text-anchor="start" x="101" y="-236" font-family="Helvetica,sans-Serif" font-size="10.00" fill="#000000">enable_in = &#39;1&#39; and distance &gt; 5 &#160;&#160;</text>
</g>
<!-- STATE_ACCELERATE&#45;&gt;STATE_ACCELERATE -->
<g id="edge4" class="edge transition">
<title>STATE_ACCELERATE&#45;&gt;STATE_ACCELERATE</title>
<path fill="none" stroke="#000000" d="M163.6768,-202.5703C176.5469,-201.9609 185.5,-200.4375 185.5,-198 185.5,-196.2861 181.0737,-195.0242 173.9718,-194.2141"/>
<polygon fill="#000000" stroke="#000000" points="173.9138,-190.6996 163.6768,-193.4297 173.3819,-197.6794 173.9138,-190.6996"/>
<text text-anchor="start" x="185.5" y="-195" font-family="Helvetica,sans-Serif" font-size="10.00" fill="#000000">not (max_distance &#45; distance &gt;= mid_distance &#45; 5) &#160;&#160;</text>
</g>
<!-- STATE_MID -->
<g id="node4" class="node state regular">
<title>STATE_MID</title>
<polygon fill="#ffffff" fill-opacity="0.003922" stroke="transparent" stroke-width="2" points="104.5,-134 15.5,-134 15.5,-98 104.5,-98 104.5,-134"/>
<text text-anchor="start" x="26.8334" y="-112.2" font-family="Helvetica,sans-Serif" font-size="12.00" fill="#000000">STATE_MID</text>
<path fill="none" stroke="#000000" stroke-width="2" d="M27.8333,-99C27.8333,-99 92.1667,-99 92.1667,-99 97.8333,-99 103.5,-104.6667 103.5,-110.3333 103.5,-110.3333 103.5,-121.6667 103.5,-121.6667 103.5,-127.3333 97.8333,-133 92.1667,-133 92.1667,-133 27.8333,-133 27.8333,-133 22.1667,-133 16.5,-127.3333 16.5,-121.6667 16.5,-121.6667 16.5,-110.3333 16.5,-110.3333 16.5,-104.6667 22.1667,-99 27.8333,-99"/>
</g>
<!-- STATE_ACCELERATE&#45;&gt;STATE_MID -->
<g id="edge3" class="edge transition">
<title>STATE_ACCELERATE&#45;&gt;STATE_MID</title>
<path fill="none" stroke="#000000" d="M83.342,-179.8015C79.458,-169.1853 74.4799,-155.5784 70.1194,-143.6596"/>
<polygon fill="#000000" stroke="#000000" points="73.3622,-142.3363 66.6394,-134.1476 66.7883,-144.7414 73.3622,-142.3363"/>
<text text-anchor="start" x="76" y="-154" font-family="Helvetica,sans-Serif" font-size="10.00" fill="#000000">max_distance &#45; distance &gt;= mid_distance &#45; 5 &#160;&#160;</text>
</g>
<!-- STATE_MID&#45;&gt;STATE_MID -->
<g id="edge6" class="edge transition">
<title>STATE_MID&#45;&gt;STATE_MID</title>
<path fill="none" stroke="#000000" d="M104.7549,-120.8452C117.0808,-120.6112 126.5,-118.9961 126.5,-116 126.5,-113.8934 121.8433,-112.4695 114.7937,-111.7284"/>
<polygon fill="#000000" stroke="#000000" points="114.9383,-108.231 104.7549,-111.1548 114.5389,-115.2196 114.9383,-108.231"/>
<text text-anchor="start" x="126.5" y="-113" font-family="Helvetica,sans-Serif" font-size="10.00" fill="#000000">not (max_distance &#45; distance &gt;= mid_distance + 5) &#160;&#160;</text>
</g>
<!-- STATE_DECELERATE -->
<g id="node5" class="node state regular">
<title>STATE_DECELERATE</title>
<polygon fill="#ffffff" fill-opacity="0.003922" stroke="transparent" stroke-width="2" points="245.5,-52 98.5,-52 98.5,-16 245.5,-16 245.5,-52"/>
<text text-anchor="start" x="109.8276" y="-30.2" font-family="Helvetica,sans-Serif" font-size="12.00" fill="#000000">STATE_DECELERATE</text>
<path fill="none" stroke="#000000" stroke-width="2" d="M110.8333,-17C110.8333,-17 233.1667,-17 233.1667,-17 238.8333,-17 244.5,-22.6667 244.5,-28.3333 244.5,-28.3333 244.5,-39.6667 244.5,-39.6667 244.5,-45.3333 238.8333,-51 233.1667,-51 233.1667,-51 110.8333,-51 110.8333,-51 105.1667,-51 99.5,-45.3333 99.5,-39.6667 99.5,-39.6667 99.5,-28.3333 99.5,-28.3333 99.5,-22.6667 105.1667,-17 110.8333,-17"/>
</g>
<!-- STATE_MID&#45;&gt;STATE_DECELERATE -->
<g id="edge5" class="edge transition">
<title>STATE_MID&#45;&gt;STATE_DECELERATE</title>
<path fill="none" stroke="#000000" d="M84.8564,-97.8015C100.8067,-86.1237 121.6995,-70.8272 139.0292,-58.1393"/>
<polygon fill="#000000" stroke="#000000" points="141.212,-60.879 147.2131,-52.1476 137.0768,-55.231 141.212,-60.879"/>
<text text-anchor="start" x="123" y="-72" font-family="Helvetica,sans-Serif" font-size="10.00" fill="#000000">max_distance &#45; distance &gt;= mid_distance + 5 &#160;&#160;</text>
</g>
<!-- STATE_DECELERATE&#45;&gt;STATE_STOP -->
<g id="edge7" class="edge transition">
<title>STATE_DECELERATE&#45;&gt;STATE_STOP</title>
<path fill="none" stroke="#000000" d="M245.6383,-45.4129C281.8319,-51.8579 321.0428,-60.3402 337,-69 403.5275,-105.1036 470.844,-157.3456 423,-216 391.8709,-254.1627 253.0006,-270.2033 171.3992,-276.4307"/>
<polygon fill="#000000" stroke="#000000" points="170.9723,-272.9526 161.2561,-277.1769 171.4859,-279.9337 170.9723,-272.9526"/>
<text text-anchor="start" x="437" y="-154" font-family="Helvetica,sans-Serif" font-size="10.00" fill="#000000">distance &lt;= 5 &#160;&#160;</text>
</g>
<!-- STATE_DECELERATE&#45;&gt;STATE_DECELERATE -->
<g id="edge8" class="edge transition">
<title>STATE_DECELERATE&#45;&gt;STATE_DECELERATE</title>
<path fill="none" stroke="#000000" d="M245.6768,-38.5703C258.5469,-37.9609 267.5,-36.4375 267.5,-34 267.5,-32.2861 263.0737,-31.0242 255.9718,-30.2141"/>
<polygon fill="#000000" stroke="#000000" points="255.9138,-26.6996 245.6768,-29.4297 255.3819,-33.6794 255.9138,-26.6996"/>
<text text-anchor="start" x="267.5" y="-31" font-family="Helvetica,sans-Serif" font-size="10.00" fill="#000000">not (distance &lt;= 5) &#160;&#160;</text>
</g>
</g>
</svg>
